HIERARCHY
ROOT hip
{
	OFFSET 0.000000 0.000000 0.000000 
	CHANNELS 6 Xposition Yposition Zposition Xrotation Zrotation Yrotation
	JOINT abdomen
	{
		OFFSET 0.000000 3.402643 0.000000 
		CHANNELS 3 Xrotation Zrotation Yrotation
		JOINT chest
		{
			OFFSET 0.000000 8.438565 -0.680529 
			CHANNELS 3 Xrotation Zrotation Yrotation
			JOINT neck
			{
				OFFSET 0.000000 10.207942 -0.272212 
				CHANNELS 3 Xrotation Zrotation Yrotation
				JOINT head
				{
					OFFSET 0.000000 3.130431 0.000000 
					CHANNELS 3 Xrotation Zrotation Yrotation
					End Site
					{
						OFFSET 0.000000 3.130435 0.000000 
					}
				}
			}
			JOINT lCollar
			{
				OFFSET 3.470700 6.669187 -0.816635 
				CHANNELS 3 Yrotation Zrotation Xrotation
				JOINT lShldr
				{
					OFFSET 3.198488 0.000000 0.000000 
					CHANNELS 3 Zrotation Yrotation Xrotation
					JOINT lForeArm
					{
						OFFSET 10.139888 0.000000 0.000000 
						CHANNELS 3 Yrotation Zrotation Xrotation
						JOINT lHand
						{
							OFFSET 8.370511 0.000000 0.000000 
							CHANNELS 3 Zrotation Yrotation Xrotation
							End Site
							{
								OFFSET 4.083176 0.000000 0.000000 
							}
						}
					}
				}
			}
			JOINT rCollar
			{
				OFFSET -3.470700 6.669187 -0.816635 
				CHANNELS 3 Yrotation Zrotation Xrotation
				JOINT rShldr
				{
					OFFSET -3.198488 0.000000 0.000000 
					CHANNELS 3 Zrotation Yrotation Xrotation
					JOINT rForeArm
					{
						OFFSET -10.139888 0.000000 0.000000 
						CHANNELS 3 Yrotation Zrotation Xrotation
						JOINT rHand
						{
							OFFSET -8.370511 0.000000 0.000000 
							CHANNELS 3 Zrotation Yrotation Xrotation
							End Site
							{
								OFFSET -4.083176 0.000000 0.000000 
							}
						}
					}
				}
			}
		}
	}
	JOINT lThigh
	{
		OFFSET 5.308129 -1.633274 1.361059 
		CHANNELS 3 Xrotation Zrotation Yrotation
		JOINT lShin
		{
			OFFSET -2.041588 -20.007561 0.000000 
			CHANNELS 3 Xrotation Zrotation Yrotation
			JOINT lFoot
			{
				OFFSET 0.000000 -19.190928 -1.224953 
				CHANNELS 3 Xrotation Yrotation Zrotation
				End Site
				{
					OFFSET 0.000000 -2.449906 4.627600 
				}
			}
		}
	}
	JOINT rThigh
	{
		OFFSET -5.308129 -1.633274 1.361059 
		CHANNELS 3 Xrotation Zrotation Yrotation
		JOINT rShin
		{
			OFFSET 2.041588 -20.007561 0.000000 
			CHANNELS 3 Xrotation Zrotation Yrotation
			JOINT rFoot
			{
				OFFSET 0.000000 -19.190928 -1.224953 
				CHANNELS 3 Xrotation Yrotation Zrotation
				End Site
				{
					OFFSET 0.000000 -2.449906 4.627600 
				}
			}
		}
	}
}
MOTION
Frames: 10
Frame Time: 0.016667
1.877577 44.685966 -18.439152 -2.048030 4.743080 -132.639999 -21.496099 0.739726 1.555710 19.980400 -0.517552 0.854814 4.557090 4.207840 -8.127600 9.872390 6.234750 -3.296250 2.000000 -2.000000 0.000000 96.279900 177.348999 6.000010 32.275700 -0.330441 0.073065 0.080329 -0.097214 -169.949005 -2.000000 2.000000 0.000000 43.236000 63.129101 161.716003 -120.498001 0.150418 0.099632 -0.058717 0.036966 -150.242004 -15.969113 -0.358232 -15.183427 21.213083 2.817630 1.649994 -9.216881 18.639610 4.086297 -1.758053 4.188681 8.642117 3.556238 -4.213055 -0.115265 -5.905300 -37.166756 -2.208483 
1.880396 44.684292 -18.430052 -2.008810 4.733430 -132.636002 -21.525499 0.745356 1.542920 19.931601 -0.507782 0.855149 4.466650 4.300340 -8.230430 9.862950 6.264020 -3.333410 2.000000 -2.000000 0.000000 96.191902 177.300995 5.697170 31.855801 -0.330973 0.072216 0.080195 -0.097007 -169.860992 -2.000000 2.000000 0.000000 42.846802 63.334999 161.345993 -120.488998 0.150436 0.099643 -0.058799 0.037312 -150.369003 -15.970398 -0.360777 -15.202724 21.262362 2.820434 1.659500 -9.140091 18.661352 4.060739 -1.728926 4.207379 8.587498 3.558667 -4.198727 -0.124676 -5.951868 -37.084217 -2.249794 
1.882912 44.680561 -18.421965 -1.969560 4.714020 -132.621994 -21.554701 0.736244 1.546430 19.882799 -0.517542 0.845931 4.253770 4.240960 -8.158780 9.784240 6.255330 -3.303840 2.000000 -2.000000 0.000000 96.152802 177.212997 5.501660 31.592100 -0.331303 0.071681 0.080299 -0.097168 -169.929001 -2.000000 2.000000 0.000000 42.574699 63.511398 161.102005 -120.498001 0.150418 0.099632 -0.058856 0.037551 -150.457001 -15.978129 -0.367829 -15.181832 21.378117 2.839515 1.661156 -9.138287 18.638708 4.028430 -1.683565 4.229033 8.544932 3.543787 -4.237246 -0.134638 -6.025522 -37.010509 -2.296390 
1.885710 44.675938 -18.416010 -1.930310 4.694610 -132.617996 -21.583900 0.721482 1.562690 19.853500 -0.537069 0.856201 3.969800 4.165020 -8.058770 9.656530 6.256980 -3.249320 2.000000 -2.000000 0.000000 96.142998 177.164993 5.306240 31.299200 -0.331668 0.071084 0.080239 -0.097076 -169.889999 -2.000000 2.000000 0.000000 42.468300 63.638699 160.955994 -120.469002 0.150474 0.099665 -0.058863 0.037578 -150.466995 -15.979294 -0.343166 -15.057242 21.398033 2.837706 1.660589 -9.104909 18.517120 4.007751 -1.644051 4.239459 8.491157 3.550258 -4.231342 -0.125015 -6.183630 -36.955738 -2.366480 
1.887877 44.671688 -18.409269 -1.900860 4.675170 -132.595993 -21.622700 0.706721 1.578950 19.814400 -0.546829 0.856693 3.802420 4.167800 -8.062790 9.577940 6.257970 -3.257830 2.000000 -2.000000 0.000000 96.142899 177.117004 5.071760 30.957399 -0.332090 0.070386 0.079913 -0.096571 -169.675995 -2.000000 2.000000 0.000000 42.439400 63.697498 160.839005 -120.440002 0.150530 0.099698 -0.058812 0.037365 -150.389008 -15.981726 -0.310979 -14.943006 21.457649 2.836586 1.669225 -9.164701 18.362850 3.986596 -1.604560 4.229804 8.436465 3.555369 -4.214290 -0.125128 -6.321364 -36.918278 -2.449903 
1.889000 44.669632 -18.399944 -1.891060 4.675200 -132.556000 -21.661600 0.691970 1.595230 19.794901 -0.556591 0.866775 3.698580 4.224290 -8.122820 9.548720 6.277790 -3.278690 2.000000 -2.000000 0.000000 96.152702 177.067993 4.915400 30.723000 -0.332376 0.069906 0.079809 -0.096410 -169.606995 -2.000000 2.000000 0.000000 42.430000 63.756401 160.712006 -120.390999 0.150623 0.099753 -0.058793 0.037285 -150.358994 -16.001213 -0.322390 -14.950135 21.475916 2.841589 1.650373 -9.217571 18.324446 3.986975 -1.596314 4.234092 8.359557 3.553699 -4.216177 -0.134342 -6.395842 -36.871353 -2.503004 
1.889214 44.668221 -18.392868 -1.881290 4.684990 -132.535995 -21.681700 0.705472 1.547810 19.804701 -0.517534 0.846636 3.731240 4.141590 -8.035460 9.568250 6.267820 -3.238430 2.000000 -2.000000 0.000000 96.094002 177.020004 4.768810 30.586300 -0.332543 0.069625 0.079957 -0.096640 -169.705002 -2.000000 2.000000 0.000000 42.529701 63.931999 160.798996 -120.322998 0.150754 0.099829 -0.058837 0.037471 -150.427994 -15.971231 -0.319682 -15.060050 21.421347 2.811927 1.665383 -9.213330 18.384377 4.027439 -1.585424 4.229122 8.282269 3.559825 -4.210026 -0.114957 -6.484818 -36.801334 -2.536520 
1.890428 44.664230 -18.389723 -1.851870 4.675300 -132.524002 -21.682100 0.709910 1.504020 19.824200 -0.488241 0.826554 4.088380 3.866910 -7.819990 9.704270 6.149460 -3.147150 2.000000 -2.000000 0.000000 96.054901 177.001007 4.632050 30.449499 -0.332708 0.069344 0.080106 -0.096870 -169.802994 -2.000000 2.000000 0.000000 42.619400 64.097801 160.878006 -120.283997 0.150828 0.099873 -0.058908 0.037764 -150.535004 -15.973733 -0.318379 -15.089227 21.480066 2.814722 1.665037 -9.094592 18.439606 4.000906 -1.567209 4.244439 8.236212 3.546675 -4.221104 -0.115368 -6.666276 -36.680767 -2.623254 
1.898865 44.657669 -18.387140 -1.812730 4.694930 -132.492004 -21.701500 0.704247 1.516730 19.834000 -0.507772 0.826717 3.842690 3.486160 -7.450750 9.585080 6.044020 -2.984510 2.000000 -2.000000 0.000000 96.094002 177.009995 4.651600 30.332399 -0.332850 0.069103 0.080373 -0.097283 -169.977997 -2.000000 2.000000 0.000000 42.678299 64.127197 160.858002 -120.264000 0.150866 0.099895 -0.058979 0.038056 -150.641998 -16.081247 -0.306290 -15.071617 21.665184 2.836588 1.685704 -9.086263 18.402557 3.980891 -1.536636 4.292613 8.173245 3.553822 -4.215580 -0.124543 -6.964277 -36.550591 -2.805140 
1.913300 44.654198 -18.383883 -1.744260 4.743910 -132.438995 -21.730801 0.695152 1.520280 19.804701 -0.527298 0.827233 3.893960 3.600840 -7.465690 9.585440 6.073180 -2.991450 2.000000 -2.000000 0.000000 96.113503 177.020004 4.671150 30.303101 -0.332885 0.069043 0.080598 -0.097626 -170.125000 -2.000000 2.000000 0.000000 42.746601 64.107399 160.945999 -120.264000 0.150866 0.099895 -0.059005 0.038162 -150.682007 -16.150236 -0.226479 -15.131582 21.772850 2.844800 1.695361 -9.078506 18.341213 3.959922 -1.529258 4.377042 8.080203 3.551823 -4.217268 -0.124715 -7.225304 -36.469662 -2.937487 
